<svg xmlns="http://www.w3.org/2000/svg" viewBox="0 0 64 64" width="64" height="64" fill="none">
  <defs>
    <linearGradient id="fsg" x1="0" y1="0" x2="64" y2="64" gradientUnits="userSpaceOnUse">
      <stop offset="0" stop-color="#2c9f89"/>
      <stop offset="1" stop-color="#17675b"/>
    </linearGradient>
    <linearGradient id="fsp" x1="0" y1="0" x2="64" y2="64" gradientUnits="userSpaceOnUse">
      <stop offset="0" stop-color="#fdb022"/>
      <stop offset="1" stop-color="#f79009"/>
    </linearGradient>
  </defs>
  <circle cx="16" cy="14" r="7" fill="url(#fsg)"/>
  <circle cx="48" cy="14" r="7" fill="url(#fsg)"/>
  <circle cx="18" cy="34" r="7" fill="url(#fsg)"/>
  <circle cx="46" cy="34" r="7" fill="url(#fsg)"/>
  <path d="M8 38C8 33.6 11.6 30 16 30H48C52.4 30 56 33.6 56 38V44C56 52.8 48.8 60 40 60H24C15.2 60 8 52.8 8 44V38Z" fill="url(#fsg)"/>
  <circle cx="26" cy="42" r="2.5" fill="#fef0c7"/>
  <circle cx="38" cy="42" r="2.5" fill="#fef0c7"/>
  <ellipse cx="32" cy="49" rx="4" ry="3" fill="#fef0c7"/>
  <circle cx="53" cy="46" r="7" fill="url(#fsp)"/>
  <path d="M53 43V49M50 46H56" stroke="#fff" stroke-width="1.6" stroke-linecap="round"/>
</svg>